<svg width="201" height="224" viewBox="0 0 201 224" fill="none" xmlns="http://www.w3.org/2000/svg">
<path d="M114.431 124.121L98.6489 135.991C98.6489 135.991 54.0574 116.863 40.644 46.8679L56.7629 30.6459C61.0765 56.2665 74.2398 100.266 114.431 124.121Z" fill="url(#paint0_linear_942_579)"/>
<path d="M69.8013 4.23198C68.8941 4.65573 122.851 -11.914 158.669 17.7702C158.821 24.6372 158.512 71.2442 122.96 107.029L108.292 95.7674C108.292 95.7674 139.769 67.6043 139.769 26.7722C139.769 26.7722 117.386 11.9464 69.8231 23.2301L69.8013 4.23198Z" fill="url(#paint1_linear_942_579)"/>
<path d="M35 14.4783L52.4009 6.10107L54.3947 25.4686L38.3737 41.9514L35 14.4783Z" fill="#38B8EB"/>
<path d="M6.048 159.512V185H3.456V159.512H6.048ZM11.9042 168.152H14.3522C14.4242 168.752 14.4602 169.652 14.4602 170.852H14.5322C15.0602 169.94 15.8522 169.196 16.9082 168.62C17.9642 168.02 19.0562 167.72 20.1842 167.72C22.2962 167.72 23.8802 168.296 24.9362 169.448C25.9922 170.576 26.5202 172.196 26.5202 174.308V185H24.1442V175.676C24.1442 173.708 23.8082 172.256 23.1362 171.32C22.4642 170.36 21.2762 169.88 19.5722 169.88C19.3802 169.88 19.1282 169.904 18.8162 169.952C18.5282 170 18.1082 170.156 17.5562 170.42C17.0042 170.66 16.5122 170.996 16.0802 171.428C15.6722 171.836 15.3002 172.472 14.9642 173.336C14.6282 174.2 14.4602 175.208 14.4602 176.36V185H12.0842V171.86C12.0842 171.428 12.0242 170.192 11.9042 168.152ZM40.8001 168.152V170.312H35.9401V180.248C35.9401 181.424 36.1441 182.228 36.5521 182.66C36.9601 183.068 37.5721 183.272 38.3881 183.272C39.2281 183.272 40.0441 183.056 40.8361 182.624L40.9441 184.82C40.0561 185.228 38.9881 185.432 37.7401 185.432C36.6121 185.432 35.6281 185.096 34.7881 184.424C33.9721 183.752 33.5641 182.588 33.5641 180.932V170.312H30.0001V168.152H33.5641V163.4H35.9401V168.152H40.8001ZM59.7372 177.224H45.6972C45.8412 178.928 46.4892 180.368 47.6412 181.544C48.8172 182.696 50.2332 183.272 51.8892 183.272C53.0652 183.272 54.1332 182.996 55.0932 182.444C56.0532 181.868 56.7852 181.172 57.2892 180.356L59.1252 181.868C57.2532 184.244 54.8412 185.432 51.8892 185.432C49.3932 185.432 47.3172 184.592 45.6612 182.912C44.0052 181.232 43.1772 179.12 43.1772 176.576C43.1772 174.056 43.9932 171.956 45.6252 170.276C47.2572 168.572 49.2732 167.72 51.6732 167.72C54.1452 167.744 56.1012 168.56 57.5412 170.168C59.0052 171.752 59.7372 173.744 59.7372 176.144V177.224ZM45.7692 175.28H57.1452C57.1452 173.648 56.6532 172.34 55.6692 171.356C54.6852 170.372 53.3532 169.88 51.6732 169.88C50.1372 169.88 48.7692 170.432 47.5692 171.536C46.3692 172.64 45.7692 173.888 45.7692 175.28ZM63.5771 190.256L65.3411 188.384C66.0611 189.344 66.9851 190.1 68.1131 190.652C69.2411 191.204 70.4651 191.48 71.7851 191.48C74.0651 191.48 75.7211 190.868 76.7531 189.644C77.8091 188.444 78.3371 186.848 78.3371 184.856V181.832H78.2651C76.8491 183.944 74.7491 185 71.9651 185C69.5171 185 67.4411 184.184 65.7371 182.552C64.0331 180.92 63.1811 178.88 63.1811 176.432C63.1811 173.96 63.9851 171.896 65.5931 170.24C67.2251 168.56 69.2771 167.72 71.7491 167.72C74.4851 167.72 76.6571 168.8 78.2651 170.96H78.3371V168.152H80.7131V184.856C80.7131 185.672 80.6411 186.452 80.4971 187.196C80.3771 187.94 80.1131 188.708 79.7051 189.5C79.2971 190.316 78.7691 191.012 78.1211 191.588C77.4971 192.188 76.6211 192.68 75.4931 193.064C74.3891 193.448 73.1171 193.64 71.6771 193.64C68.3891 193.64 65.6891 192.512 63.5771 190.256ZM67.5731 171.788C66.3731 173.06 65.7731 174.584 65.7731 176.36C65.7731 178.136 66.3731 179.66 67.5731 180.932C68.7971 182.204 70.2851 182.84 72.0371 182.84C73.8371 182.84 75.3611 182.24 76.6091 181.04C77.8811 179.816 78.4811 178.256 78.4091 176.36C78.4091 174.536 77.8211 173 76.6451 171.752C75.4931 170.504 73.9571 169.88 72.0371 169.88C70.2851 169.88 68.7971 170.516 67.5731 171.788ZM86.3049 185V173.408C86.3049 173.168 86.2569 171.416 86.1609 168.152H88.5009V171.284H88.5729C88.9569 170.276 89.6049 169.436 90.5169 168.764C91.4529 168.068 92.6049 167.72 93.9729 167.72C94.6449 167.72 95.2329 167.792 95.7369 167.936L95.2689 170.276C94.9569 170.156 94.5009 170.096 93.9009 170.096C92.2449 170.096 90.9609 170.672 90.0489 171.824C89.1369 172.952 88.6809 174.176 88.6809 175.496V185H86.3049ZM100.922 168.152V185H98.5461V168.152H100.922ZM100.922 160.448C101.282 160.784 101.462 161.192 101.462 161.672C101.462 162.152 101.282 162.56 100.922 162.896C100.586 163.232 100.19 163.4 99.7341 163.4C99.2781 163.4 98.8701 163.232 98.5101 162.896C98.1741 162.56 98.0061 162.152 98.0061 161.672C98.0061 161.192 98.1741 160.784 98.5101 160.448C98.8701 160.112 99.2781 159.944 99.7341 159.944C100.19 159.944 100.586 160.112 100.922 160.448ZM115.367 168.152V170.312H110.507V180.248C110.507 181.424 110.711 182.228 111.119 182.66C111.527 183.068 112.139 183.272 112.955 183.272C113.795 183.272 114.611 183.056 115.403 182.624L115.511 184.82C114.623 185.228 113.555 185.432 112.307 185.432C111.179 185.432 110.195 185.096 109.354 184.424C108.539 183.752 108.131 182.588 108.131 180.932V170.312H104.567V168.152H108.131V163.4H110.507V168.152H115.367ZM119.58 168.152L124.872 182.084L130.02 168.152H132.9L124.476 189.392C123.924 190.808 123.24 191.864 122.424 192.56C121.632 193.28 120.552 193.64 119.184 193.64C118.272 193.64 117.54 193.556 116.988 193.388L117.24 191.084C117.744 191.348 118.344 191.48 119.04 191.48C119.832 191.48 120.468 191.228 120.948 190.724C121.452 190.22 121.896 189.464 122.28 188.456L123.504 185.216L116.592 168.152H119.58ZM146.858 185V159.512H154.274C156.914 159.512 158.966 160.088 160.43 161.24C161.918 162.392 162.662 164.084 162.662 166.316C162.662 168.572 161.918 170.276 160.43 171.428C158.966 172.58 156.914 173.156 154.274 173.156H149.45V185H146.858ZM149.45 161.888V170.78H153.626C155.81 170.78 157.394 170.372 158.378 169.556C159.362 168.74 159.854 167.66 159.854 166.316C159.854 164.972 159.362 163.904 158.378 163.112C157.394 162.296 155.81 161.888 153.626 161.888H149.45ZM176.278 174.668H177.466V174.236C177.466 171.332 176.026 169.88 173.146 169.88C171.178 169.88 169.462 170.54 167.998 171.86L166.558 170.168C168.142 168.536 170.518 167.72 173.686 167.72C175.462 167.72 176.926 168.236 178.078 169.268C179.254 170.276 179.842 171.752 179.842 173.696V181.22C179.842 182.54 179.938 183.8 180.13 185H177.826C177.682 184.184 177.61 183.272 177.61 182.264H177.538C176.242 184.376 174.262 185.432 171.598 185.432C169.99 185.432 168.622 185 167.494 184.136C166.366 183.272 165.802 182.06 165.802 180.5C165.802 179.612 165.958 178.832 166.27 178.16C166.582 177.488 167.038 176.948 167.638 176.54C168.238 176.132 168.862 175.796 169.51 175.532C170.158 175.268 170.914 175.076 171.778 174.956C172.666 174.836 173.434 174.764 174.082 174.74C174.73 174.692 175.462 174.668 176.278 174.668ZM177.466 176.612H176.242C171.01 176.612 168.394 177.8 168.394 180.176C168.394 181.208 168.778 181.988 169.546 182.516C170.338 183.02 171.274 183.272 172.354 183.272C174.01 183.272 175.27 182.768 176.134 181.76C177.022 180.728 177.466 179.42 177.466 177.836V176.612ZM186.306 168.152L191.598 182.084L196.746 168.152H199.626L191.202 189.392C190.65 190.808 189.966 191.864 189.15 192.56C188.358 193.28 187.278 193.64 185.91 193.64C184.998 193.64 184.266 193.556 183.714 193.388L183.966 191.084C184.47 191.348 185.07 191.48 185.766 191.48C186.558 191.48 187.194 191.228 187.674 190.724C188.178 190.22 188.622 189.464 189.006 188.456L190.23 185.216L183.318 168.152H186.306Z" fill="#1F4799"/>
<path d="M9.352 209.088V219H8.344V209.088H9.352ZM11.6294 212.448H12.5814C12.6094 212.681 12.6234 213.031 12.6234 213.498H12.6514C12.8567 213.143 13.1647 212.854 13.5754 212.63C13.9861 212.397 14.4107 212.28 14.8494 212.28C15.6707 212.28 16.2867 212.504 16.6974 212.952C17.1081 213.391 17.3134 214.021 17.3134 214.842V219H16.3894V215.374C16.3894 214.609 16.2587 214.044 15.9974 213.68C15.7361 213.307 15.2741 213.12 14.6114 213.12C14.5367 213.12 14.4387 213.129 14.3174 213.148C14.2054 213.167 14.0421 213.227 13.8274 213.33C13.6127 213.423 13.4214 213.554 13.2534 213.722C13.0947 213.881 12.9501 214.128 12.8194 214.464C12.6887 214.8 12.6234 215.192 12.6234 215.64V219H11.6994V213.89C11.6994 213.722 11.6761 213.241 11.6294 212.448ZM22.8667 212.448V213.288H20.9767V217.152C20.9767 217.609 21.056 217.922 21.2147 218.09C21.3734 218.249 21.6114 218.328 21.9287 218.328C22.2554 218.328 22.5727 218.244 22.8807 218.076L22.9227 218.93C22.5774 219.089 22.162 219.168 21.6767 219.168C21.238 219.168 20.8554 219.037 20.5287 218.776C20.2114 218.515 20.0527 218.062 20.0527 217.418V213.288H18.6667V212.448H20.0527V210.6H20.9767V212.448H22.8667ZM30.2311 215.976H24.7711C24.8271 216.639 25.0791 217.199 25.5271 217.656C25.9845 218.104 26.5351 218.328 27.1791 218.328C27.6365 218.328 28.0518 218.221 28.4251 218.006C28.7985 217.782 29.0831 217.511 29.2791 217.194L29.9931 217.782C29.2651 218.706 28.3271 219.168 27.1791 219.168C26.2085 219.168 25.4011 218.841 24.7571 218.188C24.1131 217.535 23.7911 216.713 23.7911 215.724C23.7911 214.744 24.1085 213.927 24.7431 213.274C25.3778 212.611 26.1618 212.28 27.0951 212.28C28.0565 212.289 28.8171 212.607 29.3771 213.232C29.9465 213.848 30.2311 214.623 30.2311 215.556V215.976ZM24.7991 215.22H29.2231C29.2231 214.585 29.0318 214.077 28.6491 213.694C28.2665 213.311 27.7485 213.12 27.0951 213.12C26.4978 213.12 25.9658 213.335 25.4991 213.764C25.0325 214.193 24.7991 214.679 24.7991 215.22ZM31.7244 221.044L32.4104 220.316C32.6904 220.689 33.0498 220.983 33.4884 221.198C33.9271 221.413 34.4031 221.52 34.9164 221.52C35.8031 221.52 36.4471 221.282 36.8484 220.806C37.2591 220.339 37.4644 219.719 37.4644 218.944V217.768H37.4364C36.8858 218.589 36.0691 219 34.9864 219C34.0344 219 33.2271 218.683 32.5644 218.048C31.9018 217.413 31.5704 216.62 31.5704 215.668C31.5704 214.707 31.8831 213.904 32.5084 213.26C33.1431 212.607 33.9411 212.28 34.9024 212.28C35.9664 212.28 36.8111 212.7 37.4364 213.54H37.4644V212.448H38.3884V218.944C38.3884 219.261 38.3604 219.565 38.3044 219.854C38.2578 220.143 38.1551 220.442 37.9964 220.75C37.8378 221.067 37.6324 221.338 37.3804 221.562C37.1378 221.795 36.7971 221.987 36.3584 222.136C35.9291 222.285 35.4344 222.36 34.8744 222.36C33.5958 222.36 32.5458 221.921 31.7244 221.044ZM33.2784 213.862C32.8118 214.357 32.5784 214.949 32.5784 215.64C32.5784 216.331 32.8118 216.923 33.2784 217.418C33.7544 217.913 34.3331 218.16 35.0144 218.16C35.7144 218.16 36.3071 217.927 36.7924 217.46C37.2871 216.984 37.5204 216.377 37.4924 215.64C37.4924 214.931 37.2638 214.333 36.8064 213.848C36.3584 213.363 35.7611 213.12 35.0144 213.12C34.3331 213.12 33.7544 213.367 33.2784 213.862ZM40.563 219V214.492C40.563 214.399 40.5444 213.717 40.507 212.448H41.417V213.666H41.445C41.5944 213.274 41.8464 212.947 42.201 212.686C42.565 212.415 43.013 212.28 43.545 212.28C43.8064 212.28 44.035 212.308 44.231 212.364L44.049 213.274C43.9277 213.227 43.7504 213.204 43.517 213.204C42.873 213.204 42.3737 213.428 42.019 213.876C41.6644 214.315 41.487 214.791 41.487 215.304V219H40.563ZM46.2475 212.448V219H45.3235V212.448H46.2475ZM46.2475 209.452C46.3875 209.583 46.4575 209.741 46.4575 209.928C46.4575 210.115 46.3875 210.273 46.2475 210.404C46.1168 210.535 45.9628 210.6 45.7855 210.6C45.6081 210.6 45.4495 210.535 45.3095 210.404C45.1788 210.273 45.1135 210.115 45.1135 209.928C45.1135 209.741 45.1788 209.583 45.3095 209.452C45.4495 209.321 45.6081 209.256 45.7855 209.256C45.9628 209.256 46.1168 209.321 46.2475 209.452ZM51.8648 212.448V213.288H49.9748V217.152C49.9748 217.609 50.0541 217.922 50.2128 218.09C50.3714 218.249 50.6094 218.328 50.9268 218.328C51.2534 218.328 51.5708 218.244 51.8788 218.076L51.9208 218.93C51.5754 219.089 51.1601 219.168 50.6748 219.168C50.2361 219.168 49.8534 219.037 49.5267 218.776C49.2094 218.515 49.0508 218.062 49.0508 217.418V213.288H47.6648V212.448H49.0508V210.6H49.9748V212.448H51.8648ZM53.5032 212.448L55.5612 217.866L57.5632 212.448H58.6832L55.4072 220.708C55.1925 221.259 54.9265 221.669 54.6092 221.94C54.3012 222.22 53.8812 222.36 53.3492 222.36C52.9945 222.36 52.7099 222.327 52.4952 222.262L52.5932 221.366C52.7892 221.469 53.0225 221.52 53.2932 221.52C53.6012 221.52 53.8485 221.422 54.0352 221.226C54.2312 221.03 54.4039 220.736 54.5532 220.344L55.0292 219.084L52.3412 212.448H53.5032ZM64.9096 212.448V219H63.9856V212.448H64.9096ZM64.9096 209.452C65.0496 209.583 65.1196 209.741 65.1196 209.928C65.1196 210.115 65.0496 210.273 64.9096 210.404C64.7789 210.535 64.6249 210.6 64.4476 210.6C64.2702 210.6 64.1116 210.535 63.9716 210.404C63.8409 210.273 63.7756 210.115 63.7756 209.928C63.7756 209.741 63.8409 209.583 63.9716 209.452C64.1116 209.321 64.2702 209.256 64.4476 209.256C64.6249 209.256 64.7789 209.321 64.9096 209.452ZM67.0689 212.448H68.0209C68.0489 212.681 68.0629 213.031 68.0629 213.498H68.0909C68.2962 213.143 68.6042 212.854 69.0149 212.63C69.4255 212.397 69.8502 212.28 70.2889 212.28C71.1102 212.28 71.7262 212.504 72.1369 212.952C72.5475 213.391 72.7529 214.021 72.7529 214.842V219H71.8289V215.374C71.8289 214.609 71.6982 214.044 71.4369 213.68C71.1755 213.307 70.7135 213.12 70.0509 213.12C69.9762 213.12 69.8782 213.129 69.7569 213.148C69.6449 213.167 69.4815 213.227 69.2669 213.33C69.0522 213.423 68.8609 213.554 68.6929 213.722C68.5342 213.881 68.3895 214.128 68.2589 214.464C68.1282 214.8 68.0629 215.192 68.0629 215.64V219H67.1389V213.89C67.1389 213.722 67.1155 213.241 67.0689 212.448ZM80.1586 214.31V218.076H85.4646V219H79.1506V209.088H85.2966V210.012H80.1586V213.386H84.9606V214.31H80.1586ZM92.6575 212.448L89.9975 219H88.9615L86.3015 212.448H87.4075L89.4935 217.964H89.5215L91.6075 212.448H92.6575ZM99.9714 215.976H94.5114C94.5674 216.639 94.8194 217.199 95.2674 217.656C95.7247 218.104 96.2754 218.328 96.9194 218.328C97.3767 218.328 97.792 218.221 98.1654 218.006C98.5387 217.782 98.8234 217.511 99.0194 217.194L99.7334 217.782C99.0054 218.706 98.0674 219.168 96.9194 219.168C95.9487 219.168 95.1414 218.841 94.4974 218.188C93.8534 217.535 93.5314 216.713 93.5314 215.724C93.5314 214.744 93.8487 213.927 94.4834 213.274C95.118 212.611 95.902 212.28 96.8354 212.28C97.7967 212.289 98.5574 212.607 99.1174 213.232C99.6867 213.848 99.9714 214.623 99.9714 215.556V215.976ZM94.5394 215.22H98.9634C98.9634 214.585 98.772 214.077 98.3894 213.694C98.0067 213.311 97.4887 213.12 96.8354 213.12C96.238 213.12 95.706 213.335 95.2394 213.764C94.7727 214.193 94.5394 214.679 94.5394 215.22ZM101.745 219V214.492C101.745 214.399 101.726 213.717 101.689 212.448H102.599V213.666H102.627C102.776 213.274 103.028 212.947 103.383 212.686C103.747 212.415 104.195 212.28 104.727 212.28C104.988 212.28 105.217 212.308 105.413 212.364L105.231 213.274C105.109 213.227 104.932 213.204 104.699 213.204C104.055 213.204 103.555 213.428 103.201 213.876C102.846 214.315 102.669 214.791 102.669 215.304V219H101.745ZM106.673 212.448L108.731 217.866L110.733 212.448H111.853L108.577 220.708C108.362 221.259 108.096 221.669 107.779 221.94C107.471 222.22 107.051 222.36 106.519 222.36C106.164 222.36 105.88 222.327 105.665 222.262L105.763 221.366C105.959 221.469 106.192 221.52 106.463 221.52C106.771 221.52 107.018 221.422 107.205 221.226C107.401 221.03 107.574 220.736 107.723 220.344L108.199 219.084L105.511 212.448H106.673ZM120.46 210.012V219H119.452V210.012H116.134V209.088H123.778V210.012H120.46ZM123.797 219V214.492C123.797 214.399 123.779 213.717 123.741 212.448H124.651V213.666H124.679C124.829 213.274 125.081 212.947 125.435 212.686C125.799 212.415 126.247 212.28 126.779 212.28C127.041 212.28 127.269 212.308 127.465 212.364L127.283 213.274C127.162 213.227 126.985 213.204 126.751 213.204C126.107 213.204 125.608 213.428 125.253 213.876C124.899 214.315 124.721 214.791 124.721 215.304V219H123.797ZM132.086 214.982H132.548V214.814C132.548 213.685 131.988 213.12 130.868 213.12C130.103 213.12 129.435 213.377 128.866 213.89L128.306 213.232C128.922 212.597 129.846 212.28 131.078 212.28C131.769 212.28 132.338 212.481 132.786 212.882C133.243 213.274 133.472 213.848 133.472 214.604V217.53C133.472 218.043 133.509 218.533 133.584 219H132.688C132.632 218.683 132.604 218.328 132.604 217.936H132.576C132.072 218.757 131.302 219.168 130.266 219.168C129.641 219.168 129.109 219 128.67 218.664C128.231 218.328 128.012 217.857 128.012 217.25C128.012 216.905 128.073 216.601 128.194 216.34C128.315 216.079 128.493 215.869 128.726 215.71C128.959 215.551 129.202 215.421 129.454 215.318C129.706 215.215 130 215.141 130.336 215.094C130.681 215.047 130.98 215.019 131.232 215.01C131.484 214.991 131.769 214.982 132.086 214.982ZM132.548 215.738H132.072C130.037 215.738 129.02 216.2 129.02 217.124C129.02 217.525 129.169 217.829 129.468 218.034C129.776 218.23 130.14 218.328 130.56 218.328C131.204 218.328 131.694 218.132 132.03 217.74C132.375 217.339 132.548 216.83 132.548 216.214V215.738ZM135.538 212.448H136.49C136.518 212.681 136.532 213.031 136.532 213.498H136.56C136.765 213.143 137.073 212.854 137.484 212.63C137.894 212.397 138.319 212.28 138.758 212.28C139.579 212.28 140.195 212.504 140.606 212.952C141.016 213.391 141.222 214.021 141.222 214.842V219H140.298V215.374C140.298 214.609 140.167 214.044 139.906 213.68C139.644 213.307 139.182 213.12 138.52 213.12C138.445 213.12 138.347 213.129 138.226 213.148C138.114 213.167 137.95 213.227 137.736 213.33C137.521 213.423 137.33 213.554 137.162 213.722C137.003 213.881 136.858 214.128 136.728 214.464C136.597 214.8 136.532 215.192 136.532 215.64V219H135.608V213.89C135.608 213.722 135.584 213.241 135.538 212.448ZM147.685 213.456L146.859 214.002C146.551 213.414 146.08 213.12 145.445 213.12C145.081 213.12 144.764 213.204 144.493 213.372C144.222 213.531 144.087 213.773 144.087 214.1C144.087 214.389 144.185 214.609 144.381 214.758C144.586 214.907 144.918 215.033 145.375 215.136L146.313 215.36C146.78 215.472 147.162 215.687 147.461 216.004C147.76 216.321 147.909 216.704 147.909 217.152C147.909 217.824 147.662 218.328 147.167 218.664C146.672 219 146.07 219.168 145.361 219.168C144.25 219.168 143.41 218.743 142.841 217.894L143.639 217.348C144.059 218.001 144.633 218.328 145.361 218.328C145.781 218.328 146.14 218.235 146.439 218.048C146.747 217.861 146.901 217.591 146.901 217.236C146.901 216.937 146.794 216.713 146.579 216.564C146.364 216.415 146.056 216.289 145.655 216.186L144.759 215.976C143.639 215.696 143.079 215.122 143.079 214.254C143.079 213.61 143.312 213.12 143.779 212.784C144.255 212.448 144.829 212.28 145.501 212.28C146.574 212.28 147.302 212.672 147.685 213.456ZM153.086 214.982H153.548V214.814C153.548 213.685 152.988 213.12 151.868 213.12C151.103 213.12 150.435 213.377 149.866 213.89L149.306 213.232C149.922 212.597 150.846 212.28 152.078 212.28C152.769 212.28 153.338 212.481 153.786 212.882C154.243 213.274 154.472 213.848 154.472 214.604V217.53C154.472 218.043 154.509 218.533 154.584 219H153.688C153.632 218.683 153.604 218.328 153.604 217.936H153.576C153.072 218.757 152.302 219.168 151.266 219.168C150.641 219.168 150.109 219 149.67 218.664C149.231 218.328 149.012 217.857 149.012 217.25C149.012 216.905 149.073 216.601 149.194 216.34C149.315 216.079 149.493 215.869 149.726 215.71C149.959 215.551 150.202 215.421 150.454 215.318C150.706 215.215 151 215.141 151.336 215.094C151.681 215.047 151.98 215.019 152.232 215.01C152.484 214.991 152.769 214.982 153.086 214.982ZM153.548 215.738H153.072C151.037 215.738 150.02 216.2 150.02 217.124C150.02 217.525 150.169 217.829 150.468 218.034C150.776 218.23 151.14 218.328 151.56 218.328C152.204 218.328 152.694 218.132 153.03 217.74C153.375 217.339 153.548 216.83 153.548 216.214V215.738ZM162.138 213.414L161.382 213.988C161.223 213.736 160.994 213.531 160.696 213.372C160.406 213.204 160.089 213.12 159.744 213.12C158.997 213.111 158.4 213.353 157.952 213.848C157.504 214.333 157.28 214.959 157.28 215.724C157.28 216.489 157.504 217.119 157.952 217.614C158.4 218.099 158.997 218.337 159.744 218.328C160.089 218.328 160.406 218.249 160.696 218.09C160.994 217.922 161.223 217.712 161.382 217.46L162.138 218.034C161.503 218.771 160.705 219.149 159.744 219.168C158.689 219.177 157.844 218.86 157.21 218.216C156.584 217.563 156.272 216.732 156.272 215.724C156.272 214.716 156.584 213.89 157.21 213.246C157.844 212.593 158.689 212.271 159.744 212.28C160.705 212.299 161.503 212.677 162.138 213.414ZM166.75 212.448V213.288H164.86V217.152C164.86 217.609 164.939 217.922 165.098 218.09C165.256 218.249 165.494 218.328 165.812 218.328C166.138 218.328 166.456 218.244 166.764 218.076L166.806 218.93C166.46 219.089 166.045 219.168 165.56 219.168C165.121 219.168 164.738 219.037 164.412 218.776C164.094 218.515 163.936 218.062 163.936 217.418V213.288H162.55V212.448H163.936V210.6H164.86V212.448H166.75ZM169.144 212.448V219H168.22V212.448H169.144ZM169.144 209.452C169.284 209.583 169.354 209.741 169.354 209.928C169.354 210.115 169.284 210.273 169.144 210.404C169.013 210.535 168.859 210.6 168.682 210.6C168.505 210.6 168.346 210.535 168.206 210.404C168.075 210.273 168.01 210.115 168.01 209.928C168.01 209.741 168.075 209.583 168.206 209.452C168.346 209.321 168.505 209.256 168.682 209.256C168.859 209.256 169.013 209.321 169.144 209.452ZM177.015 213.26C177.669 213.913 177.995 214.735 177.995 215.724C177.995 216.713 177.669 217.535 177.015 218.188C176.362 218.841 175.527 219.168 174.509 219.168C173.501 219.168 172.671 218.841 172.017 218.188C171.364 217.535 171.037 216.713 171.037 215.724C171.037 214.735 171.364 213.913 172.017 213.26C172.671 212.607 173.501 212.28 174.509 212.28C175.527 212.28 176.362 212.607 177.015 213.26ZM176.301 217.586C176.759 217.091 176.987 216.471 176.987 215.724C176.987 214.977 176.759 214.357 176.301 213.862C175.853 213.367 175.256 213.12 174.509 213.12C173.772 213.12 173.175 213.367 172.717 213.862C172.269 214.357 172.045 214.977 172.045 215.724C172.045 216.471 172.269 217.091 172.717 217.586C173.175 218.081 173.772 218.328 174.509 218.328C175.256 218.328 175.853 218.081 176.301 217.586ZM179.602 212.448H180.554C180.582 212.681 180.596 213.031 180.596 213.498H180.624C180.829 213.143 181.137 212.854 181.548 212.63C181.959 212.397 182.383 212.28 182.822 212.28C183.643 212.28 184.259 212.504 184.67 212.952C185.081 213.391 185.286 214.021 185.286 214.842V219H184.362V215.374C184.362 214.609 184.231 214.044 183.97 213.68C183.709 213.307 183.247 213.12 182.584 213.12C182.509 213.12 182.411 213.129 182.29 213.148C182.178 213.167 182.015 213.227 181.8 213.33C181.585 213.423 181.394 213.554 181.226 213.722C181.067 213.881 180.923 214.128 180.792 214.464C180.661 214.8 180.596 215.192 180.596 215.64V219H179.672V213.89C179.672 213.722 179.649 213.241 179.602 212.448Z" fill="#1F4799"/>
<defs>
<linearGradient id="paint0_linear_942_579" x1="40.644" y1="83.3158" x2="114.431" y2="83.3158" gradientUnits="userSpaceOnUse">
<stop stop-color="#1F4799"/>
<stop offset="1" stop-color="#4880C2"/>
</linearGradient>
<linearGradient id="paint1_linear_942_579" x1="69.785" y1="53.5174" x2="158.68" y2="53.5174" gradientUnits="userSpaceOnUse">
<stop stop-color="#2350A1"/>
<stop offset="1" stop-color="#4880C2"/>
</linearGradient>
</defs>
</svg>
